<?xml version="1.0" standalone="no"?>
<!DOCTYPE svg PUBLIC "-//W3C//DTD SVG 20010904//EN"
 "http://www.w3.org/TR/2001/REC-SVG-20010904/DTD/svg10.dtd">
<svg version="1.0" xmlns="http://www.w3.org/2000/svg"
 width="1311.000000pt" height="1311.000000pt" viewBox="0 0 1311.000000 1311.000000"
 preserveAspectRatio="xMidYMid meet">
<metadata>
Created by potrace 1.14, written by Peter Selinger 2001-2017
</metadata>
<g transform="translate(0.000000,1311.000000) scale(0.100000,-0.100000)"
fill="#000000" stroke="none">
<path d="M8 7560 c0 -3 -2 -118 -3 -255 l-1 -250 276 0 275 0 2 -730 c1 -401
3 -735 3 -740 0 -12 609 -17 611 -6 1 3 2 337 3 741 l1 735 277 0 278 0 0 255
0 256 -860 0 c-473 0 -861 -3 -862 -6z"/>
<path d="M1828 7540 c-2 -21 -2 -1924 1 -1956 1 -11 1670 -16 1672 -5 4 20 3
501 -1 502 -3 1 -241 2 -529 3 l-525 1 -7 27 c-4 15 -5 29 -2 32 3 3 5 46 4
96 l-2 90 529 0 c415 0 531 3 534 13 2 6 4 113 4 237 l-1 225 -415 2 c-228 1
-468 2 -532 3 l-117 0 -1 68 c-1 62 -1 86 3 152 l2 25 527 0 c291 0 529 2 529
5 4 17 3 500 -1 501 -3 1 -379 2 -837 3 l-831 2 -4 -26z"/>
<path d="M3609 7531 c0 -34 0 -1893 1 -1937 l0 -21 518 2 c284 2 540 6 567 9
76 11 184 35 203 45 9 5 21 9 25 9 9 0 55 17 107 40 100 43 289 200 306 254 3
10 9 18 13 18 12 0 87 158 109 232 21 65 39 155 48 226 5 45 5 288 0 322 -2
14 -7 45 -10 70 -17 118 -72 277 -126 371 -119 203 -285 319 -535 376 -59 13
-162 16 -647 18 l-578 1 -1 -35z m929 -485 c64 -9 125 -35 199 -83 43 -28 110
-128 134 -200 19 -55 23 -90 23 -183 0 -130 -13 -197 -57 -288 -37 -78 -107
-143 -185 -173 -76 -29 -82 -29 -269 -32 l-161 -3 -1 480 c0 264 2 483 4 487
5 7 258 3 313 -5z"/>
<path d="M5604 7559 c-3 -5 217 -338 254 -384 4 -5 38 -56 76 -111 l68 -102
-61 -88 c-34 -49 -67 -98 -74 -108 -6 -10 -23 -32 -35 -47 -13 -16 -20 -29
-15 -29 4 0 4 -4 -2 -8 -5 -4 -28 -34 -51 -67 -134 -196 -183 -270 -179 -273
3 -3 390 -6 431 -3 6 1 51 68 99 151 48 82 91 148 95 145 4 -2 46 -70 95 -150
82 -137 89 -145 119 -146 132 -2 408 0 411 3 3 3 -54 91 -92 144 -4 5 -12 17
-18 26 -40 64 -200 294 -207 296 -4 2 -8 8 -8 14 0 10 -56 94 -77 116 -7 7
-13 17 -13 22 0 8 70 111 328 488 41 60 63 95 65 105 1 8 -61 11 -216 12
l-218 0 -21 -33 c-20 -32 -29 -48 -103 -181 -39 -70 -51 -79 -67 -50 -4 8 -39
70 -78 139 l-69 125 -216 0 c-119 0 -218 -2 -221 -6z"/>
<path d="M7510 7493 c-4 -127 0 -1927 4 -1930 4 -5 68 -7 132 -4 29 1 32 5 36
36 2 20 2 38 0 40 -3 3 -4 40 -3 82 1 43 2 85 2 93 0 8 0 40 0 70 0 30 0 64
-1 75 -1 11 -1 26 -1 33 0 120 0 225 0 237 0 29 0 105 0 118 -1 6 0 32 0 57 0
25 1 53 0 63 0 9 0 64 0 122 0 58 0 112 0 120 0 8 0 63 0 123 0 133 1 175 6
180 2 2 -1 17 -5 33 -5 17 -5 29 0 29 5 0 7 8 4 18 -6 22 48 -84 62 -123 7
-17 132 -313 278 -660 147 -346 268 -634 270 -640 1 -5 12 -31 23 -57 18 -40
27 -48 50 -49 31 -1 88 -1 115 0 17 1 29 22 68 116 125 303 305 737 315 760 8
17 26 59 41 95 14 36 31 76 37 90 6 14 11 27 12 30 1 3 6 16 12 30 27 62 36
85 37 92 1 3 4 10 9 14 4 4 7 16 7 26 0 10 4 18 9 18 5 0 13 14 16 32 4 18 11
39 16 48 17 32 66 147 78 183 7 21 16 35 19 32 4 -4 7 -355 8 -782 0 -565 3
-776 12 -781 13 -9 136 -7 150 2 6 3 9 366 8 973 l-1 968 -104 0 -104 0 -54
-130 c-29 -71 -57 -139 -63 -150 -5 -11 -30 -72 -56 -135 -25 -63 -52 -128
-59 -145 -8 -16 -41 -97 -75 -180 -34 -82 -67 -163 -75 -180 -7 -16 -42 -102
-78 -190 -36 -88 -85 -207 -109 -265 -25 -58 -64 -151 -88 -208 -23 -57 -47
-101 -53 -99 -5 1 -18 25 -29 52 -10 28 -25 64 -32 80 -12 25 -117 279 -293
705 -19 47 -46 109 -59 138 -13 29 -24 57 -24 62 0 6 -4 18 -10 28 -9 17 -84
193 -86 202 -1 6 -11 31 -59 144 -19 45 -52 124 -74 176 l-39 95 -101 3 c-91
2 -101 1 -101 -15z"/>
<path d="M9750 7333 c-2 -981 0 -1766 5 -1771 6 -6 154 -6 161 0 3 4 5 80 3
118 -1 8 0 40 0 70 1 30 1 87 1 125 -1 39 0 75 1 80 1 6 1 13 0 17 -1 8 -1
108 0 128 0 8 0 49 0 90 0 84 0 93 0 170 0 30 0 60 0 65 -2 92 -2 162 0 170 1
6 1 13 0 17 -1 8 -1 108 0 128 0 8 0 49 0 90 0 84 0 93 0 170 0 30 0 60 0 65
-2 92 -2 162 0 170 1 6 1 13 1 16 -1 3 -1 29 -1 57 -2 97 -3 147 -4 172 -2 24
-4 25 -84 28 l-83 3 0 -178z"/>
<path d="M10234 7496 c-3 -7 -4 -42 -2 -77 l3 -64 302 -1 c166 0 305 -3 309
-7 4 -3 7 -404 8 -889 l1 -883 79 -3 c44 -2 82 1 85 7 3 5 6 404 6 886 0 772
2 878 15 884 8 3 144 6 303 5 l287 -1 0 79 0 78 -695 0 c-576 0 -697 -2 -701
-14z"/>
<path d="M11950 7448 c-2 -641 0 -1871 3 -1875 7 -6 1128 -5 1135 1 9 9 10
124 1 138 -6 10 -107 13 -486 13 l-478 0 -3 368 c-1 202 1 368 5 368 5 1 202
2 438 3 237 1 435 4 441 8 10 7 11 134 1 144 -3 3 -202 6 -444 7 l-438 2 0
365 0 364 473 0 c471 -1 472 -1 476 20 4 20 7 60 7 81 0 6 -2 19 -4 30 -4 20
-13 20 -565 23 l-562 2 0 -62z"/>
</g>
</svg>
